<?xml version="1.0" encoding="utf-8"?>
<!-- Generator: Adobe Illustrator 15.1.0, SVG Export Plug-In . SVG Version: 6.00 Build 0)  -->
<!DOCTYPE svg PUBLIC "-//W3C//DTD SVG 1.1//EN" "http://www.w3.org/Graphics/SVG/1.1/DTD/svg11.dtd">
<svg version="1.1" id="Layer_1" xmlns="http://www.w3.org/2000/svg" xmlns:xlink="http://www.w3.org/1999/xlink" x="0px" y="0px"
	 width="302.085px" height="187.5px" viewBox="0 0 302.085 187.5" style="enable-background:new 0 0 302.085 187.5;"
	 xml:space="preserve">
<style type="text/css">
<![CDATA[
	.st0{fill:#EE3127;}
	.st1{fill:#F9A01B;}
	.st2{fill:#CC171E;}
]]>
</style>
<g id="back">
	<polygon class="st1" points="290.654,181.916 229.719,151.123 176.863,184.037 124.01,151.123 71.148,184.037 26.368,153.242 
		1.831,137.785 34.745,107.99 1.831,78.197 34.745,48.398 10.205,4.264 71.141,35.057 123.996,2.143 176.85,35.057 229.711,2.143 
		274.491,32.937 299.029,48.395 266.115,78.189 299.029,107.982 266.212,139.57 	">
  		<animate attributeName="fill" repeatCount="indefinite" dur="600ms" to="#EE3127" />
	</polygon>
</g>
<g id="middle">
	<polygon class="st0" points="290.418,170.557 270.137,155.498 253.621,171.498 237.105,155.498 220.592,171.498 204.078,155.498 
		187.563,171.498 171.044,155.498 154.529,171.498 138.011,155.498 121.494,171.498 104.974,155.498 88.459,171.498 71.939,155.498 
		55.417,171.498 38.893,155.498 18.61,170.559 30.37,154.701 14.37,145.902 30.37,137.102 14.37,128.303 30.37,119.504 
		14.37,110.703 30.37,101.902 14.37,93.102 30.37,84.303 14.37,75.504 30.37,66.704 14.37,57.903 30.37,49.099 14.37,40.297 
		30.37,31.49 18.606,15.623 38.887,30.682 55.404,14.682 71.919,30.682 88.433,14.682 104.947,30.682 121.462,14.682 137.98,30.682 
		154.496,14.682 171.012,30.682 187.529,14.682 204.049,30.682 220.564,14.682 237.086,30.682 253.607,14.682 270.131,30.682 
		290.414,15.621 278.654,31.479 294.654,40.277 278.654,49.077 294.654,57.877 278.654,66.676 294.654,75.476 278.654,84.278 
		294.654,93.077 278.654,101.877 294.654,110.676 278.654,119.475 294.654,128.275 278.654,137.08 294.654,145.883 278.746,155.896 ">
  		<animate attributeName="fill" repeatCount="indefinite" dur="600ms" to="#F9A01B" />
	</polygon>
</g>
<g id="front">
	<polygon class="st2" points="289.57,172.211 252.777,157.152 219.746,173.152 186.71,157.152 153.675,173.152 120.638,157.152 
		87.602,173.152 54.562,157.152 17.76,172.213 29.521,147.553 13.521,129.953 29.521,112.352 13.521,94.754 29.521,77.151 
		13.521,59.548 29.521,41.94 17.758,17.275 54.551,32.335 87.582,16.335 120.617,32.335 153.653,16.335 186.689,32.335 
		219.727,16.335 252.766,32.335 289.568,17.274 277.807,41.935 293.807,59.534 277.807,77.136 293.807,94.731 277.807,112.336 
		293.807,129.939 277.838,148.254 	"/>
</g>
</svg>
