<?xml version="1.0" encoding="utf-8"?>
<!-- Generator: Adobe Illustrator 15.1.0, SVG Export Plug-In . SVG Version: 6.00 Build 0)  -->
<!DOCTYPE svg PUBLIC "-//W3C//DTD SVG 1.1//EN" "http://www.w3.org/Graphics/SVG/1.1/DTD/svg11.dtd">
<svg version="1.1" id="Layer_1" xmlns="http://www.w3.org/2000/svg" xmlns:xlink="http://www.w3.org/1999/xlink" x="0px" y="0px"
	 width="361px" height="231.5px" viewBox="0 0 361 231.5" style="enable-background:new 0 0 361 231.5;" xml:space="preserve">
<style type="text/css">
<![CDATA[
	.st0{fill:#4A1267;}
	.st1{fill:#29003D;}
	.st2{fill:#000029;}
]]>
</style>
<g id="back">
	<polygon class="st1" points="325.716,197.959 321.854,203.518 309.207,195.235 296.561,184.633 283.912,191.589 271.265,198.396 
		258.617,201.65 245.971,216.355 233.328,184.768 220.682,222.822 208.038,222.747 195.392,201.622 182.743,185.327 
		170.096,204.447 157.449,222.643 144.8,204.475 132.15,212.844 119.501,188.821 106.852,206.604 94.202,219.244 81.556,193.355 
		68.907,211.338 56.253,228.123 43.604,219.474 30.945,195.787 7.291,217.208 21.359,193.502 22.738,180.505 30.504,167.509 
		6.541,154.511 31.43,141.51 7.871,128.512 20.283,115.513 32.775,102.514 28.198,89.518 7.081,76.519 21.636,63.516 5.706,50.517 
		22.061,37.508 15.345,21.64 30.934,39.188 43.58,20.507 56.227,17.72 68.875,4.112 81.522,18.196 94.169,43.564 106.816,4.55 
		119.459,32.955 132.105,39.856 144.749,34.304 157.396,27.366 170.044,42.418 182.691,23.796 195.339,31.107 207.987,40.359 
		220.638,6.733 233.286,42.254 245.936,27.465 258.585,17.859 271.231,15.778 283.881,28.574 296.534,20.313 309.184,23.187 
		321.842,45.461 330.304,28.587 345.002,37.498 356.564,50.495 330.083,63.491 354.76,76.489 314.08,89.49 343.286,102.488 
		342.143,115.487 328.164,128.487 354.902,141.482 356.61,154.481 342.827,167.484 323.682,180.483 328.681,190.567 	">
		<animate attributeName="fill" repeatCount="indefinite" dur="600ms" to="#4A1267" />
	</polygon>
</g>
<g id="middle">
	<polygon class="st0" points="325.643,195.682 316.97,202.771 305.163,186.686 293.357,208.426 281.551,189.527 269.743,213.496 
		257.937,199.184 246.13,196.813 234.326,204.029 222.523,203.988 210.718,200.309 198.915,210.433 187.108,188.217 175.3,209.525 
		163.494,202.235 151.687,197.147 139.879,191.973 128.069,193.926 116.261,192.301 104.452,201.521 92.643,205.812 80.837,199.396 
		69.028,208.654 57.215,190.296 45.406,201.801 33.589,206.707 30.461,189.992 27.545,187.329 10.393,175.779 7.451,164.229 
		34.959,152.677 21.581,141.123 29.18,129.572 28.74,118.02 36.36,106.466 34.322,94.917 6.929,83.364 26.98,71.809 19.677,60.256 
		34.953,48.695 17.018,32.279 33.578,41.91 45.384,28.104 57.19,33.145 68.997,42.473 80.804,43.04 92.611,37.435 104.417,28.66 
		116.221,37.087 128.023,37.523 139.83,27.567 151.633,39.216 163.439,50.114 175.248,31.077 187.054,42.552 198.86,28.871 
		210.669,51.123 222.479,40.697 234.286,27.328 246.096,50.829 257.905,52.247 269.711,50.702 281.52,27.3 293.332,28.004 
		305.142,46.054 316.958,49.31 321.539,44.537 328.221,48.687 337.43,60.236 328.587,71.787 331.237,83.339 333.392,94.893 
		325.229,106.444 327.223,117.997 334.449,129.55 333,141.099 340.525,152.651 330.73,164.207 321.31,175.76 335.633,188.398">
		<animate attributeName="fill" repeatCount="indefinite" dur="1000ms" to="#29003D" />
	</polygon>
</g>
<g id="front">
	<path class="st2" d="M328.242,209.891c3.026-6.11-5.703,3.191-8.648,9.375c2.945-6.184-0.884-20.736-6.871-26.506
		c5.987,5.77,2.159,11.569,4.979,15.444c-2.82-3.875-6.648-1.565-1.729-8.206c-4.919,6.641-8.746,6.997-4.881,6.914
		c-3.865,0.083-7.694-3.687-9.179,1.227c1.484-4.913-2.345,3.399-5.283-2.117c2.938,5.517-0.892-13.253-1.971-11.58
		c1.079-1.673-2.751-5.748-6.479-3.425c3.728-2.323-0.102,17.447-0.132,23.56c0.03-6.112-3.799-26.56-1.841-22.847
		c-1.958-3.713-5.786,3.195-2.849,1.391c-2.938,1.805-6.766,8.54-8.775,7.013c2.01,1.527-1.82-11.752,2.056-12.11
		c-3.876,0.358-7.706,3.822-7.232,5.796c-0.474-1.974-4.304,0.375,1.537,2.345c-5.841-1.97-9.671,5.825-7.938,9.565
		c-1.733-3.74-5.562-13.151-2.122-8.604c-3.439-4.547-7.269-7.6-11.521-10.864c4.253,3.265,0.423,24.977,1.951,29.906
		c-1.528-4.93-5.358-3.679-9.904,0.044c4.546-3.723,0.716-16.847,2.732-10.999c-2.017-5.848-5.847-4.79-6.368-11.314
		c0.521,6.524-3.308,3.486-9.602,5.717c6.294-2.23,2.465-14.57-3.921-11.073c6.386-3.497,2.555,12.331,2.789,11.505
		c-0.234,0.826-4.064-3.428-5.619-4.758c1.555,1.33-2.275-7.354,3.445-10.008c-5.721,2.653-9.547,21.848-3.319,19.659
		c-6.228,2.188-10.056,6.006-8.44,2.708c-1.615,3.298-5.446-15.254-12.104-17.695c6.657,2.441,2.828,16.945,4.06,12.343
		c-1.231,4.603-5.058,6.979-5.576,3.769c0.519,3.21-3.308-5.563-6.971-11.159c3.663,5.596-0.162,0.642,2.152,1.521
		c-2.314-0.88-6.141,7.829-7.803,5.983c1.663,1.846-2.166-4.561-6.175-5.065c4.009,0.505,0.179-8.237,4.038-13.422
		c-3.859,5.185-7.69,1.943-5.463,1.024c-2.227,0.919-6.055,17.243-5.711,17.969c-0.344-0.726-4.171-3.098,0.966-7.019
		c-5.138,3.921-8.965,2.771-9.472,7.328c0.507-4.557-3.321,8.088-7.202,7.048c3.88,1.04,0.049-25.902-1.085-22.516
		c1.134-3.387-2.697,9.075-3.854,7.615c1.158,1.46-2.671,12.962-8.637,19.597c5.966-6.635,2.137-15.503,7.084-20.803
		c-4.947,5.3-8.777,9.39-13.346,7.563c4.569,1.826,0.736-10.226,0.771-4.36c-0.036-5.865-3.866,7.563-6.526,9.273
		c2.66-1.71-1.17-4.362-4.079-9.945c2.909,5.583-0.922,15.001,0.297,12.536c-1.219,2.465-5.051-4.14-3.824-6.363
		c-1.228,2.224-5.058-3.708-4.657-6.498c-0.4,2.79-4.232-2.728-6.38-8.168c2.148,5.44-1.685,19.147-0.213,16.521
		c-1.472,2.626-5.303-4.613-9.515-7.166c4.212,2.553,0.379,14.62,3.208,12.754c-2.829,1.866-6.661-12.769-4.52-16.41
		c-2.141,3.642-5.974,10.646-0.278,6.254c-5.696,4.393-9.528,4.962-8.714,6.282c-0.814-1.32-4.647-13.976,0.389-14.442
		c-5.036,0.467-8.869,2.98-9.002,0.033c0.134,2.947-3.699,7.622-8.443,6.568c4.745,1.054,0.917-11.592,5.214-6.776
		c-4.297-4.815-8.13,4.45-2.694-1.413c-5.437,5.863-9.267,8.603-2.897,4.853c-6.37,3.75-10.204,12.776-13.086,17.217
		c2.882-4.44-0.95-25.348-2.866-22.545c1.916-2.803-1.918,4.041,0.797-0.851c-2.715,4.892-6.551-3.919-2.84,0.046
		c-3.711-3.965-7.546-0.548-6.374-4.374c-1.172,3.826-5.008,22.026-2.581,27.238c-2.427-5.212-6.261-17.858-3.131-11.193
		c-3.13-6.665-6.965,5.923-12.314,2.443c5.349,3.479,1.513-6.532,5.21-9.073c-3.698,2.541-7.54,14.797-6.163,15.301
		c-1.377-0.504-3.908-11.908,2.046-15.534c-5.954,3.626-11.308,1.127-16.903-3.635c5.595,4.762,12.962,0.942,15.019,4.548
		c-2.057-3.605-6.589-7.422-2.25-5.864c-4.339-1.558,4.396-5.373-1.647-1.672c6.043-3.701,9.24-7.517,9.752-8.732
		c-0.513,1.216-7.008-2.602-12.577-5.49c5.569,2.889,9.457-0.931,14.479-1.889c-5.022,0.958,1.711-2.861-2.063-8.303
		c3.773,5.441-22.785,1.625-28.099-0.434c5.314,2.059,10.45-1.759,8.514,3.148c1.937-4.907-1.127-8.726-1.875-11.507
		c0.747,2.781,1.532-1.04-3.923-0.9c5.455-0.14,12.515-3.958,16.034,1.563c-3.519-5.521-7.942-9.339-2.683-13.538
		c-5.259,4.199,8.357,0.38,2.747-2.028c5.611,2.408-9.403-1.412-13.104,0.322c3.701-1.734,6.724-5.554,9.49-11.801
		c-2.767,6.247,5.505,2.428,3.764-2.658c1.741,5.086-7.827,1.265-10.966-1.04c3.14,2.305,15.544-1.515,20.326,4.133
		c-4.781-5.647-1.417-9.468,0.191-14.62c-1.608,5.152-1.223,1.332-5.14-0.724c3.917,2.056-18.506-1.766-13.749,3.263
		c-4.757-5.028,21.499-8.849,16.032-10.182c5.467,1.333-13.185-2.489-15.799-1.105c2.614-1.384-4.876-5.204-6.125-10.433
		c1.249,5.229,16.698,1.407,22.161,0.244c-5.463,1.163-16.273-2.653-16.875-3.226c0.602,0.572,2.109-3.248,4.789-0.307
		c-2.68-2.941-7.247-6.761-3.401-12.023c-3.845,5.263,0.109,1.44,5.36,2.676c-5.251-1.235-4.591-5.056-0.833-1.266
		c-3.758-3.79,4.52-7.611,1.2-10.095c3.32,2.483,4.906-1.341,6.101-1.552c-1.195,0.211-14.592-3.612-17.951-1.626
		c3.359-1.986,6.11-5.81,6.417-6.619c-0.307,0.81-6.333-3.014-3.606,1.591c-2.727-4.604-2.681-8.428-3.144-2.22
		c0.463-6.208,16.999-10.032,15.085-3.959c1.914-6.073-8.555-9.903-9.519-15.767c0.963,5.863,11.36,5.889,7.306,5.122
		c4.054,0.767,4.027,6.281,8.405,0.857c-4.378,5.424-0.549,2.061,3.958,4.269c-4.507-2.208-0.679-10.613,0.224-15.067
		c-0.903,4.454,2.925,13.555,7.265,9.251c-4.339,4.304-0.511-6.434,0.401-4.277c-0.912-2.156,2.916,3.263-0.381,3.582
		c3.297-0.319,7.127,3.575,10.577,4.805c-3.45-1.229,0.38-12.726-0.02-14.316c0.4,1.591,4.23,4.827,0.043-0.069
		c4.187,4.896,8.016,11.781,4.191,15.203c3.825-3.422,7.654-8.395,5.677-14.336c1.977,5.941,5.805,5.425,0.642,0.233
		c5.164,5.191,8.992,17.159,5.776,15.198c3.216,1.961,7.046-4.175,10.938-9.539c-3.892,5.364-0.062-7.835-1.116-2.736
		c1.055-5.099,4.885,11.959,4.197,15.727c0.688-3.768,4.517-18.863,1.673-22.317c2.844,3.454,6.673,4.327,4.595,10.956
		c2.078-6.629,5.907,6.934,2.901,10.411c3.006-3.478,6.835-19.097,11.978-14.517c-5.143-4.58-1.313-9.318,4.592-6.5
		c-5.905-2.818-2.074,17.268,1.321,21.604c-3.395-4.336,0.435-24.335-0.896-21.079c1.331-3.256,5.16,18.304,11.124,20.495
		c-5.964-2.191-2.135-5.501-0.168-3.613c-1.967-1.888,1.864,1.571,7.901-0.29c-6.037,1.861-2.207,5.643,1.016,2.68
		c-3.223,2.963,0.607,0.855-5.675,0.775c6.282,0.08,10.108-17.819,11.374-24.088c-1.266,6.269,2.563,20.736,7.873,17.976
		c-5.311,2.761-1.479,9.521-3.294,8.435c1.814,1.087,5.644-3.768,6.514-2.995c-0.871-0.772,2.956,4.657-2.835,1.345
		c5.792,3.313,9.618-1.293,14.94,3.789c-5.323-5.082-1.498-27.298-1.174-32.406c-0.324,5.108,3.502,27.295,3.137,24.272
		c0.365,3.022,4.193-1.534,0.081-2.813c4.112,1.278,7.942-8.216,5.263-5.205c2.68-3.011,6.51-3.516,0.485-0.846
		c6.025-2.67,9.854-2.021,4.504-0.437c5.35-1.585,9.177,6.092,2.849,10.678c6.328-4.586,10.156-12.354,11.213-9.469
		c-1.057-2.886,2.771-4.843-1.684-6.335c4.456,1.492,8.288-3.058,7.879-2.064c0.408-0.993,4.238,5.967-1.721,9.876
		c5.959-3.909,9.788,7.765,13.348,1.492c-3.56,6.272,0.269-12.347,2.213-18.524c-1.944,6.178,1.886,12.898,7.248,16.264
		c-5.362-3.365-1.529,2.533-7.798-2.673c6.269,5.206,10.1-6.038,7.225-8.334c2.875,2.296,6.704,10.235,4.596,16.038
		c2.108-5.803,5.939,8.23-0.35,2.755c6.289,5.476,10.122-14.065,6.41-18.413c3.712,4.348,7.542-1.731,3.009,4.946
		c4.533-6.678,8.364,17.2,3.548,19.988c4.816-2.788,8.649-24.842,4.912-21.65c3.737-3.191,7.568-3.598,0.874,1.285
		c6.694-4.883,10.527,3.134,11.592,4.318c-1.064-1.185,2.768,4.717-0.969,4.086c3.736,0.631,7.569,12.343,4.687,18.758
		c2.883-6.415,6.715-16.409,11.247-13.806c-4.532-2.604-0.699-1.391,3.785-3.382c-4.484,1.991-0.651-17.877,2.563-12.748
		c-3.214-5.129,0.618,4.638,2.587,2.808c-1.969,1.83,1.859-6.794,3.77-12.351c-1.91,5.557,1.923,21.442,4.121,26.678
		c-2.198-5.235,1.633-9.791,6.505-7.801c-4.872-1.99-1.038-10.263,3.585-4.445c-4.623-5.817-0.791,18.481-0.642,21.664
		c-0.149-3.183,3.684-14.899,9.677-8.996c-5.993-5.903-2.157,4.313-6.239,8.294c4.082-3.98,7.917-3.716,6.849-3.143
		c1.068-0.573,4.904-22.483,9.227-27.691c-4.322,5.208-0.488,5.166,3.108,2.331c-3.597,2.835,0.238,12.76,1.237,10.333
		c-0.999,2.427,2.837,7.263-1.396,5.341c4.233,1.922,8.076-12.806,10.94-18.253c-2.864,5.447,2.862,12.746,7.961,16.97
		c-5.099-4.224-20.059,1.49-23.811,6.307c3.752-4.816,9.5-0.997,14.183-1.849c-4.683,0.852,8.547,4.668,14.554,7.667
		c-6.007-2.999-9.643,0.816-9.435,2.554c-0.208-1.737-3.025,2.079-5.694,2.201c2.669-0.122,9.755,3.694,3.447,3.198
		c6.308,0.496,5.877,4.316,0.927-1.388c4.95,5.704-1.536,9.522-0.226,7.927c-1.311,1.596,12.849,5.413,17.37,9.088
		c-4.521-3.675-8.979,0.142-6.841,1.315c-2.139-1.174-8.146,2.645-10.354-0.329c2.209,2.974,6.341,6.795,3.704,8.902
		c2.637-2.107-19.227,1.711-12.592,3.298c-6.635-1.587,17.197,2.23,20.106,0.901c-2.909,1.329-6.043,5.148-11.977,6.879
		c5.934-1.73-7.983,2.091-14.398,2.299c6.415-0.208,6.984,3.61,10.461,5.908c-3.477-2.298-0.536,1.521-2.058-4.712
		c1.521,6.233,9.507,10.055,10.782,14.749c-1.275-4.694,3.85-0.875,6.212-5.54c-2.362,4.665-12.073,8.486-5.647,8.95
		c-6.426-0.464,7.198,3.356,8.078,1.838c-0.88,1.519-15.934,5.339-12.462,4.927c-3.472,0.412,4.52,4.233,3.35,6.736
		c1.17-2.503-2.355,1.318,1.327-2.326c-3.683,3.645-15.343,7.465-12.074,6.861c-3.269,0.604,17.452,4.425,24.057,2.134
		c-6.604,2.291-4.253,6.107-1.642,0.175c-2.611,5.933-10.554,9.753-12.699,13.229c2.146-3.477-12.916,0.343-16.019,4.728
		c3.103-4.385,7.729-0.563,12.345-4.492c-4.616,3.93,7.841,7.75,10.963,2.149c-3.122,5.601,2.072,9.422-3.165,13.465
		c5.237-4.043-22.063-0.219-15.462-3.395c-6.602,3.176-3.601,6.999,0.815,8.002c-4.416-1.003,11.434,2.82,9.012,4.123
		c2.422-1.303-15.06,2.521-17.773,2.86c2.714-0.34,26.102,3.483,22.859,2.634c3.242,0.85-0.487,4.674,1.571,4.288
		c-2.059,0.386,3.861-0.716-2.468,2.586C339.008,190.119,331.269,203.78,328.242,209.891z"/>
</g>
</svg>