<?xml version="1.0" encoding="utf-8"?>
<!-- Generator: Adobe Illustrator 15.1.0, SVG Export Plug-In . SVG Version: 6.00 Build 0)  -->
<!DOCTYPE svg PUBLIC "-//W3C//DTD SVG 1.1//EN" "http://www.w3.org/Graphics/SVG/1.1/DTD/svg11.dtd">
<svg version="1.1" id="Layer_1" xmlns="http://www.w3.org/2000/svg" xmlns:xlink="http://www.w3.org/1999/xlink" x="0px" y="0px"
	 width="347px" height="190.5px" viewBox="0 0 347 190.5" style="enable-background:new 0 0 347 190.5;" xml:space="preserve">
<style type="text/css">
<![CDATA[
	.st0{fill:#344F8A;}
	.st1{fill:#6E899A;}
	.st2{fill:#416DB5;}
]]>
</style>
<g id="back">
	<path class="st1" d="M319.416,176.38c-100.499-14.297-201.258-10.844-297.831,9.759C25.154,126,28.697,66.202,32.207,6.744
		c95.537-7.566,192.198,1.667,285.743,27.52C318.627,81.336,319.113,128.707,319.416,176.38z">
		<animate attributeName="fill" repeatCount="indefinite" dur="1000ms" to="#344F8A" />
	</path>
</g>
<g id="middle">
	<path class="st0" d="M309.812,162.575c20.722,9.919-51.732-2.679-120.868-6.071c-25.562,10.476-54.604,13.775-72.301,8.525
		c-44.586,17.009-74.096,20.557-70.674,10.69c-19.7,11.756-20.058-25.02-1.18-69.622c-20.28-41.661-21.861-79.781-33.691-59.151
		c-24.568-7.652,17.435-32.702,84.507-26.91c18.402-14.892,52.63-10.241,84.936,3.659c32.386-9.408,63.456-9.314,77.236,7.103
		c68.105,3.351,108.894,31.165,73.908,34.463c23.648-5.03,13.958,17.26-16.739,44.601
		C328.219,137.879,328.771,165.311,309.812,162.575z">
		<animate attributeName="fill" repeatCount="indefinite" dur="1000ms" to="#6E899A" />
	</path>
</g>
<g id="front">
	<path class="st2" d="M324.207,181.314c-2.664-1.362-7.037-1.981-12.792-3.228c-3.899-0.846-8.238-2.016-13.336-2.827
		c-4.233-0.682-9.126,0.115-14.065-0.466c-4.389-0.507-8.428-4.075-13.325-4.6c-4.515-0.477-9.522,1.142-14.372,0.782
		c-4.568-0.33-8.786-4.798-13.653-5.124c-4.658-0.3-9.572,0.889-14.407,0.694c-4.69-0.189-9.392-1.677-14.229-1.794
		c-4.743-0.114-9.634,2.288-14.432,2.278c-4.749-0.016-9.526-0.141-14.315-0.07c-4.767,0.071-9.572-1.179-14.35-1.023
		c-4.8,0.156-9.489,2.491-14.217,2.722c-4.794,0.237-9.385,2.632-14.064,2.928c-4.778,0.302-9.646-1.034-14.303-0.651
		c-4.801,0.396-9.368,1.822-13.962,2.264c-4.791,0.452-9.826-1.397-14.377-0.852c-4.816,0.561-9.729-0.11-14.201,0.521
		c-4.846,0.679-9.412,1.722-13.766,2.42c-4.896,0.802-8.802,3.915-12.975,4.66c-5.027,0.89-10.505-0.914-14.349,0.071
		c-5.671,1.425-10.126,3.247-12.713,4.648c3.291-1.797,8.846-2.87,10.844-7.244c1.594-3.524-2.278-9.435-1.441-14.124
		c0.723-4.065,2.511-8.126,2.728-12.942c0.195-4.377,1.923-8.994,1.729-13.814c-0.186-4.574-2.359-8.932-2.889-13.61
		c-0.523-4.548,3.459-10.446,2.658-15.123c-0.81-4.667-4.143-8.474-5.243-12.862c-1.13-4.542-4.572-7.769-5.98-11.837
		c-1.489-4.29-0.306-10.173-2.072-13.927c-1.938-4.08-3.445-8.444-5.681-11.516c-2.603-3.584-7.345-4.322-10.231-6.058
		c-3.635-2.207-7.545-2.255-11.461-1.163c3.08-0.86,8.03-3.023,14.313-5.845c4.252-1.893,9.183-7.209,14.836-9.671
		c4.691-2.029,9.791-3.569,15.369-5.707c4.971-1.931,10.548,1.025,16.124-0.759c5.141-1.651,10.35-7.107,16.016-8.717
		c5.338-1.513,11.026-0.456,16.715-1.758c5.447-1.247,10.89-5.711,16.657-6.8c5.586-1.046,11.26-2.305,17.056-3.128
		c5.682-0.809,11.499,0.313,17.296-0.242c5.733-0.553,11.529-0.583,17.327-0.883c5.782-0.302,11.621,1.331,17.386,1.285
		c5.791-0.046,11.581-0.792,17.322-0.583c5.8,0.208,11.566-2.279,17.272-1.804c5.811,0.479,11.537-1.015,17.172-0.272
		c5.815,0.773,11.414,5.468,16.907,6.431c5.74,1.014,11.332,1.185,16.709,2.416c5.698,1.3,11.167,2.033,16.382,3.505
		c5.648,1.584,10.971,1.16,15.985,2.868c5.638,1.926,10.77,6.428,15.483,8.229c5.691,2.203,10.836,6.745,15.107,8.48
		c6.299,2.573,10.349,0.767,13.432,1.496c-3.923-0.901-5.619,4.021-9.093,6.449c-2.756,1.908-8.985,0.949-11.421,4.804
		c-2.085,3.295-2.115,8.825-3.869,13.067c-1.599,3.905-0.909,9.391-2.213,13.839c-1.232,4.236-1.995,8.71-2.941,13.303
		c-0.924,4.482-1.516,9.014-2.151,13.659c-0.638,4.641-1.827,9.034-2.16,13.69c-0.344,4.757-1.728,9.257-1.737,13.857
		c-0.014,4.822-2.523,9.611-2.146,14.097c0.414,4.896,1.229,9.699,2.125,13.825c1.044,4.813,5.064,8.171,6.802,11.586
		C319.205,175.466,320.82,179.594,324.207,181.314z"/>
</g>
</svg>
